:FULLY-SPECIFIED
:FORCE-ALL-JOINTS-BE-3DOF
:DEGREES
1
root 7.46593 15.9937 -36.7321 7.11356 1.31487 -3.66776
lfemur -40.6897 6.42258 -16.3516
ltibia 43.9106 0 0
lfoot -14.6186 8.34667 0
ltoes -11.8487 0 0
rfemur -9.89801 4.72659 30.1099
rtibia 24.1198 0 0
rfoot 0 0 0
rtoes 0 0 0
lowerback -4.29912 0.189404 0.939401
upperback -1.51886 0.185188 2.55702
thorax 0.845091 0.0960327 2.10705
lowerneck -18.6579 -5.17414 -13.3376
upperneck 13.6797 -6.63107 16.9236
head 8.38994 -2.28192 7.17028
lclavicle 6.33626e-15 1.59028e-14 0
lhumerus -35.9267 -2.97855 86.2544
lradius 27.4056 0 0
lwrist 7.30557 0 0
lhand -13.3003 -23.0211 0
lfingers 7.12502 0 0
lthumb 12.8038 6.56624 0
rclavicle 6.33626e-15 1.59028e-14 0
rhumerus -38.7688 17.4551 -84.1031
rradius 56.1989 0 0
rwrist -28.5696 0 0
rhand -33.2015 -25.7513 0
rfingers 7.12502 0 0
rthumb -6.4087 -55.6344 0
2
root 7.47265 15.9928 -36.6057 7.07289 1.0663 -3.65199
lfemur -40.6969 6.07781 -16.1377
ltibia 41.9494 -0 0
lfoot -14.5342 8.30302 -0.000160767
ltoes -11.9187 0 0
rfemur -9.05578 4.87343 30.0833
rtibia 23.5702 -0 0
rfoot 0 0 0
rtoes 0 0 0
lowerback -4.38531 0.214141 0.895951
upperback -1.50855 0.217658 2.54055
thorax 0.902662 0.112113 2.11694
lowerneck -18.6074 -5.11172 -13.2584
upperneck 13.7536 -6.57092 16.8735
head 8.39013 -2.25485 7.14894
lclavicle 5.41067e-15 9.24352e-15 0
lhumerus -36.0934 -3.19211 86.4645
lradius 27.5001 -0 0
lwrist 7.25572 0 0
lhand -13.0427 -23.0873 -0.000743859
lfingers 7.12502 0 0
lthumb 13.0521 6.48352 -0.000896303
rclavicle 5.41067e-15 9.24352e-15 0
rhumerus -38.8441 17.5945 -84.2918
rradius 56.7251 -0 0
rwrist -29.5184 0 0
rhand -32.8693 -26.3566 -0.00877633
rfingers 7.12502 0 0
rthumb -6.08796 -56.2479 -0.00858886
3
root 7.47937 15.992 -36.4792 7.03216 0.817741 -3.63605
lfemur -40.7055 5.73306 -15.9238
ltibia 39.9882 -0 0
lfoot -14.4498 8.25938 -0.000257228
ltoes -11.9887 0 0
rfemur -8.21343 5.02065 30.0589
rtibia 23.0206 -0 0
rfoot 0 0 0
rtoes 0 0 0
lowerback -4.47151 0.238812 0.852464
upperback -1.49824 0.25013 2.52409
thorax 0.960236 0.128182 2.12685
lowerneck -18.5568 -5.04936 -13.1792
upperneck 13.8275 -6.51071 16.8234
head 8.39032 -2.22777 7.12761
lclavicle 4.48508e-15 2.58423e-15 0
lhumerus -36.2609 -3.40506 86.6752
lradius 27.5946 -0 0
lwrist 7.20587 0 0
lhand -12.785 -23.1534 -0.00119018
lfingers 7.12502 0 0
lthumb 13.3004 6.4008 -0.00143409
rclavicle 4.48508e-15 2.58423e-15 0
rhumerus -38.9199 17.7337 -84.4808
rradius 57.2514 -0 0
rwrist -30.4673 0 0
rhand -32.537 -26.9619 -0.0140426
rfingers 7.12502 0 0
rthumb -5.76716 -56.8615 -0.0137427
4
root 7.48609 15.9911 -36.3528 6.99136 0.569193 -3.61993
lfemur -40.7153 5.38835 -15.71
ltibia 38.0269 -0 0
lfoot -14.3654 8.21573 -0.000289381
ltoes -12.0587 0 0
rfemur -7.37095 5.16821 30.0367
rtibia 22.4709 -0 0
rfoot 0 0 0
rtoes 0 0 0
lowerback -4.55774 0.263417 0.80894
upperback -1.48794 0.282606 2.50764
thorax 1.01781 0.144242 2.13677
lowerneck -18.5061 -4.98708 -13.1
upperneck 13.9013 -6.45043 16.7735
head 8.39049 -2.2007 7.10627
lclavicle 3.55949e-15 -4.07505e-15 0
lhumerus -36.4293 -3.61739 86.8866
lradius 27.6891 -0 0
lwrist 7.15603 0 0
lhand -12.5274 -23.2196 -0.00133896
lfingers 7.12502 0 0
lthumb 13.5488 6.31807 -0.00161336
rclavicle 3.55949e-15 -4.07505e-15 0
rhumerus -38.9962 17.8726 -84.6701
rradius 57.7776 -0 0
rwrist -31.4161 0 0
rhand -32.2047 -27.5673 -0.0157982
rfingers 7.12502 0 0
rthumb -5.44631 -57.4751 -0.0154607
5
root 7.4928 15.9902 -36.2264 6.95049 0.320657 -3.60364
lfemur -40.7264 5.04368 -15.4963
ltibia 36.0657 -0 0
lfoot -14.2809 8.17208 -0.000257228
ltoes -12.1287 0 0
rfemur -6.52833 5.31608 30.0167
rtibia 21.9213 -0 0
rfoot 0 0 0
rtoes 0 0 0
lowerback -4.64398 0.287958 0.765379
upperback -1.47766 0.315084 2.49119
thorax 1.07539 0.160292 2.14671
lowerneck -18.4554 -4.92487 -13.0207
upperneck 13.975 -6.39009 16.7236
head 8.39065 -2.17362 7.08494
lclavicle 2.6339e-15 -1.07343e-14 0
lhumerus -36.5985 -3.82909 87.0987
lradius 27.7835 -0 0
lwrist 7.10618 0 0
lhand -12.2697 -23.2858 -0.00119018
lfingers 7.12502 0 0
lthumb 13.7971 6.23534 -0.00143409
rclavicle 2.6339e-15 -1.07343e-14 0
rhumerus -39.0731 18.0113 -84.8598
rradius 58.3038 -0 0
rwrist -32.3649 0 0
rhand -31.8724 -28.1726 -0.0140426
rfingers 7.12502 0 0
rthumb -5.12546 -58.0887 -0.0137427
6
root 7.49952 15.9894 -36.0999 6.90955 0.0721325 -3.58717
lfemur -40.7387 4.69905 -15.2826
ltibia 34.1045 -0 0
lfoot -14.1965 8.12844 -0.000160767
ltoes -12.1987 0 0
rfemur -5.68556 5.46423 29.9988
rtibia 21.3717 -0 0
rfoot 0 0 0
rtoes 0 0 0
lowerback -4.73025 0.312432 0.721781
upperback -1.46738 0.347566 2.47475
thorax 1.13297 0.176332 2.15667
lowerneck -18.4045 -4.86272 -12.9413
upperneck 14.0487 -6.32968 16.6738
head 8.39081 -2.14655 7.0636
lclavicle 1.70831e-15 -1.73936e-14 0
lhumerus -36.7685 -4.04017 87.3115
lradius 27.878 -0 0
lwrist 7.05633 0 0
lhand -12.012 -23.3519 -0.000743859
lfingers 7.12502 0 0
lthumb 14.0454 6.15262 -0.000896303
rclavicle 1.70831e-15 -1.73936e-14 0
rhumerus -39.1505 18.1498 -85.0498
rradius 58.8301 -0 0
rwrist -33.3138 0 0
rhand -31.5401 -28.7779 -0.00877633
rfingers 7.12502 0 0
rthumb -4.80466 -58.7023 -0.00858886
7
root 7.50624 15.9885 -35.9735 6.86854 -0.17638 -3.57052
lfemur -40.7524 4.35447 -15.069
ltibia 32.1433 0 0
lfoot -14.1121 8.08479 0
ltoes -12.2687 0 0
rfemur -4.84262 5.61262 29.9831
rtibia 20.8221 0 0
rfoot 0 0 0
rtoes 0 0 0
lowerback -4.81653 0.336841 0.678146
upperback -1.45711 0.38005 2.45831
thorax 1.19056 0.192362 2.16664
lowerneck -18.3536 -4.80065 -12.8619
upperneck 14.1223 -6.26921 16.6241
head 8.39095 -2.11947 7.04227
lclavicle 7.82715e-16 -2.40529e-14 0
lhumerus -36.9393 -4.25062 87.5249
lradius 27.9725 0 0
lwrist 7.00648 0 0
lhand -11.7544 -23.4181 0
lfingers 7.12502 0 0
lthumb 14.2937 6.0699 0
rclavicle 7.82715e-16 -2.40529e-14 0
rhumerus -39.2285 18.288 -85.2402
rradius 59.3563 0 0
rwrist -34.2626 0 0
rhand -31.2079 -29.3832 0
rfingers 7.12502 0 0
rthumb -4.48392 -59.3158 0
8
root 7.51573 15.9834 -35.84 6.86326 -0.546325 -3.69184
lfemur -40.695 3.91047 -14.4602
ltibia 30.661 -0 0
lfoot -14.1265 8.61489 -0.000332699
ltoes -12.6549 0 0
rfemur -3.82414 5.69589 30.0618
rtibia 19.867 -0 0
rfoot -3.43225 -0.337264 0.0508935
rtoes -1.18253 0 0
lowerback -4.97148 0.404235 0.750391
upperback -1.40586 0.46062 2.49157
thorax 1.32766 0.232272 2.16832
lowerneck -18.5901 -4.83066 -12.6534
upperneck 14.3704 -6.32855 16.3979
head 8.50899 -2.14296 6.92322
lclavicle 2.72294e-16 -2.13362e-14 0
lhumerus -37.2543 -4.68623 87.778
lradius 28.2751 -0 0
lwrist 7.01526 0 0
lhand -11.143 -23.2351 0.00488245
lfingers 7.12502 0 0
lthumb 14.8824 6.20539 0.00348103
rclavicle 2.72294e-16 -2.13362e-14 0
rhumerus -39.3449 18.3784 -85.5036
rradius 59.7178 -0 0
rwrist -34.3801 0 0
rhand -31.2073 -29.4364 -1.35536e-06
rfingers 7.12502 0 0
rthumb -4.48335 -59.369 -1.33212e-06
9
root 7.52521 15.9783 -35.7064 6.85875 -0.91628 -3.81314
lfemur -40.6424 3.46589 -13.8522
ltibia 29.1787 -0 0
lfoot -14.1409 9.14499 -0.00053233
ltoes -13.0412 0 0
rfemur -2.8054 5.77775 30.1419
rtibia 18.9119 -0 0
rfoot -6.86474 -0.67697 0.0815036
rtoes -2.36506 0 0
lowerback -5.12635 0.471824 0.822454
upperback -1.35456 0.541161 2.5249
thorax 1.46475 0.272178 2.17009
lowerneck -18.8267 -4.85981 -12.4447
upperneck 14.6188 -6.38691 16.1714
head 8.62707 -2.16621 6.80411
lclavicle -2.38127e-16 -1.86195e-14 0
lhumerus -37.5715 -5.12043 88.0338
lradius 28.5777 -0 0
lwrist 7.02404 0 0
lhand -10.5317 -23.0521 0.00781217
lfingers 7.12502 0 0
lthumb 15.4711 6.3409 0.00556981
rclavicle -2.38127e-16 -1.86195e-14 0
rhumerus -39.4617 18.4683 -85.7674
rradius 60.0792 -0 0
rwrist -34.4975 0 0
rhand -31.2067 -29.4897 -2.16857e-06
rfingers 7.12502 0 0
rthumb -4.48277 -59.4223 -2.1314e-06
